# xmcd CD database file
#
# Track frame offsets:
#	150
#	15644
#	32390
#	48767
#	62069
#	75639
#	96730
#	114602
#	129124
#	144820
#	155263
#	178188
#
# Disc length: 2530 seconds
#
# Revision: 2
# Processed by: cddbd v1.5.2PL0 Copyright (c) Steve Scherf et al.
# Submitted via: CDex 1.70beta2
#
DISCID=8f09e00c
DTITLE=Stella Konitopoulou - Ta Nisiotika Ton Konitopouleon - CD2
DYEAR=2013
DGENRE=Greek
TTITLE0=Tha ta xanapoume
TTITLE1=Kalinichta matia mou
TTITLE2=Aftos o erotas
TTITLE3=Fisixe voria mou
TTITLE4=Pare me pio konta sou
TTITLE5=Oli i gi o ouranos
TTITLE6=Xenaki ime ke tha 'rtho
TTITLE7=Karavia chiotika
TTITLE8=Chartino karavi
TTITLE9=Horepsete, horepsete
TTITLE10=Skopos tou gamou and Dari-dari
TTITLE11=Tis agapis nazi
EXTD=YEAR: 2013
EXTT0=
EXTT1=
EXTT2=
EXTT3=
EXTT4=
EXTT5=
EXTT6=
EXTT7=
EXTT8=
EXTT9=
EXTT10=
EXTT11=
PLAYORDER=
